<mxfile host="Electron" modified="2024-06-09T22:52:20.916Z" agent="Mozilla/5.0 (Windows NT 10.0; Win64; x64) AppleWebKit/537.36 (KHTML, like Gecko) draw.io/24.5.1 Chrome/124.0.6367.207 Electron/30.0.6 Safari/537.36" etag="vCNjDXLetvwGOtiaBAT3" version="24.5.1" type="device">
  <diagram id="C5RBs43oDa-KdzZeNtuy" name="Page-1">
    <mxGraphModel dx="2049" dy="1207" grid="1" gridSize="10" guides="1" tooltips="1" connect="1" arrows="1" fold="1" page="1" pageScale="1" pageWidth="827" pageHeight="1169" math="0" shadow="0">
      <root>
        <mxCell id="WIyWlLk6GJQsqaUBKTNV-0" />
        <mxCell id="WIyWlLk6GJQsqaUBKTNV-1" parent="WIyWlLk6GJQsqaUBKTNV-0" />
        <mxCell id="SWOzDiL3YIz-11qopB4E-396" style="edgeStyle=orthogonalEdgeStyle;rounded=0;orthogonalLoop=1;jettySize=auto;html=1;exitX=0.496;exitY=0.981;exitDx=0;exitDy=0;exitPerimeter=0;entryX=0.928;entryY=0.018;entryDx=0;entryDy=0;entryPerimeter=0;" edge="1" parent="WIyWlLk6GJQsqaUBKTNV-1" target="SWOzDiL3YIz-11qopB4E-289">
          <mxGeometry relative="1" as="geometry">
            <mxPoint x="764.9" y="200" as="targetPoint" />
            <mxPoint x="764.61" y="127.66999999999996" as="sourcePoint" />
          </mxGeometry>
        </mxCell>
        <mxCell id="SWOzDiL3YIz-11qopB4E-390" style="edgeStyle=orthogonalEdgeStyle;rounded=0;orthogonalLoop=1;jettySize=auto;html=1;exitX=0.496;exitY=0.981;exitDx=0;exitDy=0;exitPerimeter=0;entryX=0.069;entryY=0.019;entryDx=0;entryDy=0;entryPerimeter=0;" edge="1" parent="WIyWlLk6GJQsqaUBKTNV-1" target="SWOzDiL3YIz-11qopB4E-289">
          <mxGeometry relative="1" as="geometry">
            <mxPoint x="704.787619047619" y="200" as="targetPoint" />
            <mxPoint x="704.71" y="128.66999999999996" as="sourcePoint" />
          </mxGeometry>
        </mxCell>
        <mxCell id="SWOzDiL3YIz-11qopB4E-364" value="" style="rounded=1;whiteSpace=wrap;html=1;fontStyle=1;strokeColor=#000000;fillColor=#fd8d27;strokeWidth=1;" vertex="1" parent="WIyWlLk6GJQsqaUBKTNV-1">
          <mxGeometry x="800" y="40" width="70" height="70" as="geometry" />
        </mxCell>
        <mxCell id="SWOzDiL3YIz-11qopB4E-382" value="" style="edgeStyle=orthogonalEdgeStyle;rounded=0;orthogonalLoop=1;jettySize=auto;html=1;exitX=1;exitY=0.5;exitDx=0;exitDy=0;entryX=0;entryY=0.5;entryDx=0;entryDy=0;" edge="1" parent="WIyWlLk6GJQsqaUBKTNV-1">
          <mxGeometry relative="1" as="geometry">
            <mxPoint x="730" y="74.88999999999999" as="sourcePoint" />
            <mxPoint x="800" y="74.88999999999999" as="targetPoint" />
          </mxGeometry>
        </mxCell>
        <mxCell id="SWOzDiL3YIz-11qopB4E-383" value="" style="edgeStyle=orthogonalEdgeStyle;rounded=0;orthogonalLoop=1;jettySize=auto;html=1;exitX=1;exitY=0.5;exitDx=0;exitDy=0;entryX=0;entryY=0.5;entryDx=0;entryDy=0;" edge="1" parent="WIyWlLk6GJQsqaUBKTNV-1">
          <mxGeometry relative="1" as="geometry">
            <mxPoint x="740" y="84.88999999999999" as="sourcePoint" />
            <mxPoint x="810" y="84.88999999999999" as="targetPoint" />
          </mxGeometry>
        </mxCell>
        <mxCell id="SWOzDiL3YIz-11qopB4E-371" value="" style="rounded=1;whiteSpace=wrap;html=1;fontStyle=1;strokeColor=#000000;fillColor=#fd8d27;strokeWidth=1;" vertex="1" parent="WIyWlLk6GJQsqaUBKTNV-1">
          <mxGeometry x="810" y="50" width="70" height="70" as="geometry" />
        </mxCell>
        <mxCell id="SWOzDiL3YIz-11qopB4E-213" value="" style="rounded=1;whiteSpace=wrap;html=1;fontStyle=1;strokeColor=#000000;fillColor=#fd8d27;strokeWidth=1;" vertex="1" parent="WIyWlLk6GJQsqaUBKTNV-1">
          <mxGeometry x="820" y="60" width="70" height="70" as="geometry" />
        </mxCell>
        <mxCell id="SWOzDiL3YIz-11qopB4E-220" value="" style="rounded=1;whiteSpace=wrap;html=1;fontStyle=1;strokeColor=#000000;fillColor=#fd8d27;strokeWidth=1;" vertex="1" parent="WIyWlLk6GJQsqaUBKTNV-1">
          <mxGeometry x="830" y="70" width="70" height="70" as="geometry" />
        </mxCell>
        <mxCell id="SWOzDiL3YIz-11qopB4E-227" value="" style="rounded=1;whiteSpace=wrap;html=1;fontStyle=1;strokeColor=#000000;fillColor=#fd8d27;strokeWidth=1;" vertex="1" parent="WIyWlLk6GJQsqaUBKTNV-1">
          <mxGeometry x="840" y="80" width="70" height="70" as="geometry" />
        </mxCell>
        <mxCell id="SWOzDiL3YIz-11qopB4E-234" value="" style="rounded=1;whiteSpace=wrap;html=1;fontStyle=1;strokeColor=#000000;fillColor=#fd8d27;strokeWidth=1;" vertex="1" parent="WIyWlLk6GJQsqaUBKTNV-1">
          <mxGeometry x="850" y="90" width="70" height="70" as="geometry" />
        </mxCell>
        <mxCell id="SWOzDiL3YIz-11qopB4E-241" value="Phase" style="rounded=1;whiteSpace=wrap;html=1;fontStyle=1;strokeColor=#000000;fillColor=#fd8d27;strokeWidth=1;fontColor=#000000;" vertex="1" parent="WIyWlLk6GJQsqaUBKTNV-1">
          <mxGeometry x="860" y="100" width="70" height="70" as="geometry" />
        </mxCell>
        <mxCell id="SWOzDiL3YIz-11qopB4E-247" value="" style="edgeStyle=orthogonalEdgeStyle;rounded=0;orthogonalLoop=1;jettySize=auto;html=1;exitX=1;exitY=0.5;exitDx=0;exitDy=0;entryX=0;entryY=0.5;entryDx=0;entryDy=0;" edge="1" parent="WIyWlLk6GJQsqaUBKTNV-1" source="SWOzDiL3YIz-11qopB4E-257" target="SWOzDiL3YIz-11qopB4E-213">
          <mxGeometry relative="1" as="geometry" />
        </mxCell>
        <mxCell id="SWOzDiL3YIz-11qopB4E-248" value="" style="edgeStyle=orthogonalEdgeStyle;rounded=0;orthogonalLoop=1;jettySize=auto;html=1;exitX=1;exitY=0.5;exitDx=0;exitDy=0;entryX=0;entryY=0.5;entryDx=0;entryDy=0;" edge="1" parent="WIyWlLk6GJQsqaUBKTNV-1">
          <mxGeometry relative="1" as="geometry">
            <mxPoint x="750" y="114.88999999999999" as="sourcePoint" />
            <mxPoint x="840" y="114.88999999999999" as="targetPoint" />
          </mxGeometry>
        </mxCell>
        <mxCell id="SWOzDiL3YIz-11qopB4E-249" value="" style="edgeStyle=orthogonalEdgeStyle;rounded=0;orthogonalLoop=1;jettySize=auto;html=1;exitX=1;exitY=0.5;exitDx=0;exitDy=0;entryX=0;entryY=0.5;entryDx=0;entryDy=0;" edge="1" parent="WIyWlLk6GJQsqaUBKTNV-1" source="SWOzDiL3YIz-11qopB4E-301" target="SWOzDiL3YIz-11qopB4E-234">
          <mxGeometry relative="1" as="geometry" />
        </mxCell>
        <mxCell id="SWOzDiL3YIz-11qopB4E-250" value="" style="edgeStyle=orthogonalEdgeStyle;rounded=0;orthogonalLoop=1;jettySize=auto;html=1;exitX=1;exitY=0.5;exitDx=0;exitDy=0;entryX=0;entryY=0.5;entryDx=0;entryDy=0;" edge="1" parent="WIyWlLk6GJQsqaUBKTNV-1" source="SWOzDiL3YIz-11qopB4E-302" target="SWOzDiL3YIz-11qopB4E-241">
          <mxGeometry relative="1" as="geometry">
            <mxPoint x="790" y="135" as="sourcePoint" />
          </mxGeometry>
        </mxCell>
        <mxCell id="SWOzDiL3YIz-11qopB4E-385" value="&lt;b&gt;Highs&lt;/b&gt;" style="edgeStyle=orthogonalEdgeStyle;rounded=0;orthogonalLoop=1;jettySize=auto;html=1;exitX=1;exitY=0.5;exitDx=0;exitDy=0;entryX=0;entryY=0.5;entryDx=0;entryDy=0;textDirection=vertical-rl;" edge="1" parent="WIyWlLk6GJQsqaUBKTNV-1">
          <mxGeometry relative="1" as="geometry">
            <mxPoint x="740" y="104.88999999999999" as="sourcePoint" />
            <mxPoint x="830" y="104.88999999999999" as="targetPoint" />
          </mxGeometry>
        </mxCell>
        <mxCell id="SWOzDiL3YIz-11qopB4E-361" style="edgeStyle=orthogonalEdgeStyle;rounded=0;orthogonalLoop=1;jettySize=auto;html=1;exitX=1;exitY=0.5;exitDx=0;exitDy=0;" edge="1" parent="WIyWlLk6GJQsqaUBKTNV-1">
          <mxGeometry relative="1" as="geometry">
            <mxPoint x="1350" y="74.74000000000001" as="sourcePoint" />
            <mxPoint x="1520" y="75" as="targetPoint" />
          </mxGeometry>
        </mxCell>
        <mxCell id="SWOzDiL3YIz-11qopB4E-362" style="edgeStyle=orthogonalEdgeStyle;rounded=0;orthogonalLoop=1;jettySize=auto;html=1;exitX=1;exitY=0.5;exitDx=0;exitDy=0;" edge="1" parent="WIyWlLk6GJQsqaUBKTNV-1">
          <mxGeometry relative="1" as="geometry">
            <mxPoint x="1360" y="84.74000000000001" as="sourcePoint" />
            <mxPoint x="1530" y="85" as="targetPoint" />
          </mxGeometry>
        </mxCell>
        <mxCell id="SWOzDiL3YIz-11qopB4E-363" style="edgeStyle=orthogonalEdgeStyle;rounded=0;orthogonalLoop=1;jettySize=auto;html=1;exitX=1;exitY=0.5;exitDx=0;exitDy=0;entryX=0;entryY=0.5;entryDx=0;entryDy=0;" edge="1" parent="WIyWlLk6GJQsqaUBKTNV-1" source="SWOzDiL3YIz-11qopB4E-364" target="SWOzDiL3YIz-11qopB4E-366">
          <mxGeometry relative="1" as="geometry" />
        </mxCell>
        <mxCell id="SWOzDiL3YIz-11qopB4E-365" style="edgeStyle=orthogonalEdgeStyle;rounded=0;orthogonalLoop=1;jettySize=auto;html=1;exitX=1;exitY=0.5;exitDx=0;exitDy=0;entryX=0;entryY=0.5;entryDx=0;entryDy=0;" edge="1" parent="WIyWlLk6GJQsqaUBKTNV-1" source="SWOzDiL3YIz-11qopB4E-366" target="SWOzDiL3YIz-11qopB4E-368">
          <mxGeometry relative="1" as="geometry" />
        </mxCell>
        <mxCell id="SWOzDiL3YIz-11qopB4E-366" value="" style="rounded=1;whiteSpace=wrap;html=1;fontStyle=1;strokeColor=#000000;fillColor=#72eb6e;" vertex="1" parent="WIyWlLk6GJQsqaUBKTNV-1">
          <mxGeometry x="960" y="40" width="70" height="70" as="geometry" />
        </mxCell>
        <mxCell id="SWOzDiL3YIz-11qopB4E-367" style="edgeStyle=orthogonalEdgeStyle;rounded=0;orthogonalLoop=1;jettySize=auto;html=1;exitX=1;exitY=0.5;exitDx=0;exitDy=0;entryX=0;entryY=0.5;entryDx=0;entryDy=0;" edge="1" parent="WIyWlLk6GJQsqaUBKTNV-1" source="SWOzDiL3YIz-11qopB4E-368" target="SWOzDiL3YIz-11qopB4E-369">
          <mxGeometry relative="1" as="geometry" />
        </mxCell>
        <mxCell id="SWOzDiL3YIz-11qopB4E-368" value="" style="rounded=1;whiteSpace=wrap;html=1;fontStyle=1;fillColor=#fc527f;strokeColor=#000000;fontColor=#FFFFFF;strokeWidth=1;" vertex="1" parent="WIyWlLk6GJQsqaUBKTNV-1">
          <mxGeometry x="1120" y="40" width="70" height="70" as="geometry" />
        </mxCell>
        <mxCell id="SWOzDiL3YIz-11qopB4E-369" value="" style="rounded=1;whiteSpace=wrap;html=1;fontColor=#FFFFFF;strokeWidth=1;strokeColor=#000000;fillColor=#9f5ef0;" vertex="1" parent="WIyWlLk6GJQsqaUBKTNV-1">
          <mxGeometry x="1280" y="40" width="70" height="70" as="geometry" />
        </mxCell>
        <mxCell id="SWOzDiL3YIz-11qopB4E-370" style="edgeStyle=orthogonalEdgeStyle;rounded=0;orthogonalLoop=1;jettySize=auto;html=1;exitX=1;exitY=0.5;exitDx=0;exitDy=0;entryX=0;entryY=0.5;entryDx=0;entryDy=0;" edge="1" parent="WIyWlLk6GJQsqaUBKTNV-1" source="SWOzDiL3YIz-11qopB4E-371" target="SWOzDiL3YIz-11qopB4E-373">
          <mxGeometry relative="1" as="geometry" />
        </mxCell>
        <mxCell id="SWOzDiL3YIz-11qopB4E-372" style="edgeStyle=orthogonalEdgeStyle;rounded=0;orthogonalLoop=1;jettySize=auto;html=1;exitX=1;exitY=0.5;exitDx=0;exitDy=0;entryX=0;entryY=0.5;entryDx=0;entryDy=0;" edge="1" parent="WIyWlLk6GJQsqaUBKTNV-1" source="SWOzDiL3YIz-11qopB4E-373" target="SWOzDiL3YIz-11qopB4E-375">
          <mxGeometry relative="1" as="geometry" />
        </mxCell>
        <mxCell id="SWOzDiL3YIz-11qopB4E-373" value="" style="rounded=1;whiteSpace=wrap;html=1;fontStyle=1;strokeColor=#000000;fillColor=#72eb6e;" vertex="1" parent="WIyWlLk6GJQsqaUBKTNV-1">
          <mxGeometry x="970" y="50" width="70" height="70" as="geometry" />
        </mxCell>
        <mxCell id="SWOzDiL3YIz-11qopB4E-374" style="edgeStyle=orthogonalEdgeStyle;rounded=0;orthogonalLoop=1;jettySize=auto;html=1;exitX=1;exitY=0.5;exitDx=0;exitDy=0;entryX=0;entryY=0.5;entryDx=0;entryDy=0;" edge="1" parent="WIyWlLk6GJQsqaUBKTNV-1" source="SWOzDiL3YIz-11qopB4E-375" target="SWOzDiL3YIz-11qopB4E-376">
          <mxGeometry relative="1" as="geometry" />
        </mxCell>
        <mxCell id="SWOzDiL3YIz-11qopB4E-375" value="" style="rounded=1;whiteSpace=wrap;html=1;fontStyle=1;fillColor=#fc527f;strokeColor=#000000;fontColor=#FFFFFF;strokeWidth=1;" vertex="1" parent="WIyWlLk6GJQsqaUBKTNV-1">
          <mxGeometry x="1130" y="50" width="70" height="70" as="geometry" />
        </mxCell>
        <mxCell id="SWOzDiL3YIz-11qopB4E-376" value="" style="rounded=1;whiteSpace=wrap;html=1;fontColor=#FFFFFF;strokeWidth=1;strokeColor=#000000;fillColor=#9f5ef0;" vertex="1" parent="WIyWlLk6GJQsqaUBKTNV-1">
          <mxGeometry x="1290" y="50" width="70" height="70" as="geometry" />
        </mxCell>
        <mxCell id="SWOzDiL3YIz-11qopB4E-354" value="" style="rounded=1;whiteSpace=wrap;html=1;strokeColor=#000000;fillColor=#53f3f8;fontStyle=1;strokeWidth=1;" vertex="1" parent="WIyWlLk6GJQsqaUBKTNV-1">
          <mxGeometry x="640" y="40" width="70" height="70" as="geometry" />
        </mxCell>
        <mxCell id="SWOzDiL3YIz-11qopB4E-355" value="" style="rounded=1;whiteSpace=wrap;html=1;strokeColor=#000000;fillColor=#53f3f8;fontStyle=1;strokeWidth=1;" vertex="1" parent="WIyWlLk6GJQsqaUBKTNV-1">
          <mxGeometry x="650" y="50" width="70" height="70" as="geometry" />
        </mxCell>
        <mxCell id="SWOzDiL3YIz-11qopB4E-339" value="" style="rounded=1;whiteSpace=wrap;html=1;strokeWidth=1;strokeColor=#FFFFFF;fillColor=#000000;" vertex="1" parent="WIyWlLk6GJQsqaUBKTNV-1">
          <mxGeometry x="40" y="40" width="70" height="70" as="geometry" />
        </mxCell>
        <mxCell id="SWOzDiL3YIz-11qopB4E-340" style="edgeStyle=orthogonalEdgeStyle;rounded=0;orthogonalLoop=1;jettySize=auto;html=1;exitX=1;exitY=0.5;exitDx=0;exitDy=0;entryX=0;entryY=0.152;entryDx=0;entryDy=0;entryPerimeter=0;" edge="1" parent="WIyWlLk6GJQsqaUBKTNV-1" source="SWOzDiL3YIz-11qopB4E-339" target="SWOzDiL3YIz-11qopB4E-260">
          <mxGeometry relative="1" as="geometry">
            <mxPoint x="185" y="75" as="targetPoint" />
          </mxGeometry>
        </mxCell>
        <mxCell id="SWOzDiL3YIz-11qopB4E-341" value="" style="rounded=1;whiteSpace=wrap;html=1;strokeWidth=1;strokeColor=#FFFFFF;fillColor=#000000;" vertex="1" parent="WIyWlLk6GJQsqaUBKTNV-1">
          <mxGeometry x="50" y="50" width="70" height="70" as="geometry" />
        </mxCell>
        <mxCell id="SWOzDiL3YIz-11qopB4E-342" style="edgeStyle=orthogonalEdgeStyle;rounded=0;orthogonalLoop=1;jettySize=auto;html=1;exitX=1;exitY=0.5;exitDx=0;exitDy=0;entryX=0;entryY=0.196;entryDx=0;entryDy=0;entryPerimeter=0;" edge="1" parent="WIyWlLk6GJQsqaUBKTNV-1" source="SWOzDiL3YIz-11qopB4E-341" target="SWOzDiL3YIz-11qopB4E-260">
          <mxGeometry relative="1" as="geometry">
            <mxPoint x="185" y="85" as="targetPoint" />
          </mxGeometry>
        </mxCell>
        <mxCell id="SWOzDiL3YIz-11qopB4E-204" style="edgeStyle=orthogonalEdgeStyle;rounded=0;orthogonalLoop=1;jettySize=auto;html=1;exitX=1;exitY=0.5;exitDx=0;exitDy=0;entryX=0;entryY=0.5;entryDx=0;entryDy=0;" edge="1" parent="WIyWlLk6GJQsqaUBKTNV-1">
          <mxGeometry relative="1" as="geometry">
            <mxPoint x="1530" y="234.82000000000005" as="sourcePoint" />
            <mxPoint x="1599" y="234.82000000000005" as="targetPoint" />
          </mxGeometry>
        </mxCell>
        <mxCell id="SWOzDiL3YIz-11qopB4E-207" style="edgeStyle=orthogonalEdgeStyle;rounded=0;orthogonalLoop=1;jettySize=auto;html=1;exitX=1;exitY=0.5;exitDx=0;exitDy=0;" edge="1" parent="WIyWlLk6GJQsqaUBKTNV-1">
          <mxGeometry relative="1" as="geometry">
            <mxPoint x="1370" y="94.74000000000001" as="sourcePoint" />
            <mxPoint x="1540" y="95" as="targetPoint" />
          </mxGeometry>
        </mxCell>
        <mxCell id="SWOzDiL3YIz-11qopB4E-208" style="edgeStyle=orthogonalEdgeStyle;rounded=0;orthogonalLoop=1;jettySize=auto;html=1;exitX=1;exitY=0.5;exitDx=0;exitDy=0;" edge="1" parent="WIyWlLk6GJQsqaUBKTNV-1">
          <mxGeometry relative="1" as="geometry">
            <mxPoint x="1380" y="104.74000000000001" as="sourcePoint" />
            <mxPoint x="1550" y="105" as="targetPoint" />
          </mxGeometry>
        </mxCell>
        <mxCell id="SWOzDiL3YIz-11qopB4E-209" style="edgeStyle=orthogonalEdgeStyle;rounded=0;orthogonalLoop=1;jettySize=auto;html=1;exitX=1;exitY=0.5;exitDx=0;exitDy=0;" edge="1" parent="WIyWlLk6GJQsqaUBKTNV-1">
          <mxGeometry relative="1" as="geometry">
            <mxPoint x="1390" y="114.74000000000001" as="sourcePoint" />
            <mxPoint x="1560" y="115" as="targetPoint" />
          </mxGeometry>
        </mxCell>
        <mxCell id="SWOzDiL3YIz-11qopB4E-210" style="edgeStyle=orthogonalEdgeStyle;rounded=0;orthogonalLoop=1;jettySize=auto;html=1;exitX=1;exitY=0.5;exitDx=0;exitDy=0;" edge="1" parent="WIyWlLk6GJQsqaUBKTNV-1">
          <mxGeometry relative="1" as="geometry">
            <mxPoint x="1400" y="124.74000000000001" as="sourcePoint" />
            <mxPoint x="1570" y="125" as="targetPoint" />
          </mxGeometry>
        </mxCell>
        <mxCell id="SWOzDiL3YIz-11qopB4E-211" style="edgeStyle=orthogonalEdgeStyle;rounded=0;orthogonalLoop=1;jettySize=auto;html=1;exitX=1;exitY=0.5;exitDx=0;exitDy=0;" edge="1" parent="WIyWlLk6GJQsqaUBKTNV-1">
          <mxGeometry relative="1" as="geometry">
            <mxPoint x="1410" y="134.74" as="sourcePoint" />
            <mxPoint x="1580" y="135" as="targetPoint" />
          </mxGeometry>
        </mxCell>
        <mxCell id="SWOzDiL3YIz-11qopB4E-212" style="edgeStyle=orthogonalEdgeStyle;rounded=0;orthogonalLoop=1;jettySize=auto;html=1;exitX=1;exitY=0.5;exitDx=0;exitDy=0;entryX=0;entryY=0.5;entryDx=0;entryDy=0;" edge="1" parent="WIyWlLk6GJQsqaUBKTNV-1" source="SWOzDiL3YIz-11qopB4E-213" target="SWOzDiL3YIz-11qopB4E-215">
          <mxGeometry relative="1" as="geometry" />
        </mxCell>
        <mxCell id="SWOzDiL3YIz-11qopB4E-214" style="edgeStyle=orthogonalEdgeStyle;rounded=0;orthogonalLoop=1;jettySize=auto;html=1;exitX=1;exitY=0.5;exitDx=0;exitDy=0;entryX=0;entryY=0.5;entryDx=0;entryDy=0;" edge="1" parent="WIyWlLk6GJQsqaUBKTNV-1" source="SWOzDiL3YIz-11qopB4E-215" target="SWOzDiL3YIz-11qopB4E-217">
          <mxGeometry relative="1" as="geometry" />
        </mxCell>
        <mxCell id="SWOzDiL3YIz-11qopB4E-215" value="" style="rounded=1;whiteSpace=wrap;html=1;fontStyle=1;strokeColor=#000000;fillColor=#72eb6e;" vertex="1" parent="WIyWlLk6GJQsqaUBKTNV-1">
          <mxGeometry x="980" y="60" width="70" height="70" as="geometry" />
        </mxCell>
        <mxCell id="SWOzDiL3YIz-11qopB4E-216" style="edgeStyle=orthogonalEdgeStyle;rounded=0;orthogonalLoop=1;jettySize=auto;html=1;exitX=1;exitY=0.5;exitDx=0;exitDy=0;entryX=0;entryY=0.5;entryDx=0;entryDy=0;" edge="1" parent="WIyWlLk6GJQsqaUBKTNV-1" source="SWOzDiL3YIz-11qopB4E-217" target="SWOzDiL3YIz-11qopB4E-218">
          <mxGeometry relative="1" as="geometry" />
        </mxCell>
        <mxCell id="SWOzDiL3YIz-11qopB4E-217" value="" style="rounded=1;whiteSpace=wrap;html=1;fontStyle=1;fillColor=#fc527f;strokeColor=#000000;fontColor=#FFFFFF;strokeWidth=1;" vertex="1" parent="WIyWlLk6GJQsqaUBKTNV-1">
          <mxGeometry x="1140" y="60" width="70" height="70" as="geometry" />
        </mxCell>
        <mxCell id="SWOzDiL3YIz-11qopB4E-218" value="" style="rounded=1;whiteSpace=wrap;html=1;fontColor=#FFFFFF;strokeWidth=1;strokeColor=#000000;fillColor=#9f5ef0;" vertex="1" parent="WIyWlLk6GJQsqaUBKTNV-1">
          <mxGeometry x="1300" y="60" width="70" height="70" as="geometry" />
        </mxCell>
        <mxCell id="SWOzDiL3YIz-11qopB4E-219" style="edgeStyle=orthogonalEdgeStyle;rounded=0;orthogonalLoop=1;jettySize=auto;html=1;exitX=1;exitY=0.5;exitDx=0;exitDy=0;entryX=0;entryY=0.5;entryDx=0;entryDy=0;" edge="1" parent="WIyWlLk6GJQsqaUBKTNV-1" source="SWOzDiL3YIz-11qopB4E-220" target="SWOzDiL3YIz-11qopB4E-222">
          <mxGeometry relative="1" as="geometry" />
        </mxCell>
        <mxCell id="SWOzDiL3YIz-11qopB4E-221" style="edgeStyle=orthogonalEdgeStyle;rounded=0;orthogonalLoop=1;jettySize=auto;html=1;exitX=1;exitY=0.5;exitDx=0;exitDy=0;entryX=0;entryY=0.5;entryDx=0;entryDy=0;" edge="1" parent="WIyWlLk6GJQsqaUBKTNV-1" source="SWOzDiL3YIz-11qopB4E-222" target="SWOzDiL3YIz-11qopB4E-224">
          <mxGeometry relative="1" as="geometry" />
        </mxCell>
        <mxCell id="SWOzDiL3YIz-11qopB4E-222" value="" style="rounded=1;whiteSpace=wrap;html=1;fontStyle=1;strokeColor=#000000;fillColor=#72eb6e;" vertex="1" parent="WIyWlLk6GJQsqaUBKTNV-1">
          <mxGeometry x="990" y="70" width="70" height="70" as="geometry" />
        </mxCell>
        <mxCell id="SWOzDiL3YIz-11qopB4E-223" style="edgeStyle=orthogonalEdgeStyle;rounded=0;orthogonalLoop=1;jettySize=auto;html=1;exitX=1;exitY=0.5;exitDx=0;exitDy=0;entryX=0;entryY=0.5;entryDx=0;entryDy=0;" edge="1" parent="WIyWlLk6GJQsqaUBKTNV-1" source="SWOzDiL3YIz-11qopB4E-224" target="SWOzDiL3YIz-11qopB4E-225">
          <mxGeometry relative="1" as="geometry" />
        </mxCell>
        <mxCell id="SWOzDiL3YIz-11qopB4E-224" value="" style="rounded=1;whiteSpace=wrap;html=1;fontStyle=1;fillColor=#fc527f;strokeColor=#000000;fontColor=#FFFFFF;strokeWidth=1;" vertex="1" parent="WIyWlLk6GJQsqaUBKTNV-1">
          <mxGeometry x="1150" y="70" width="70" height="70" as="geometry" />
        </mxCell>
        <mxCell id="SWOzDiL3YIz-11qopB4E-225" value="" style="rounded=1;whiteSpace=wrap;html=1;fontColor=#FFFFFF;strokeWidth=1;strokeColor=#000000;fillColor=#9f5ef0;" vertex="1" parent="WIyWlLk6GJQsqaUBKTNV-1">
          <mxGeometry x="1310" y="70" width="70" height="70" as="geometry" />
        </mxCell>
        <mxCell id="SWOzDiL3YIz-11qopB4E-226" style="edgeStyle=orthogonalEdgeStyle;rounded=0;orthogonalLoop=1;jettySize=auto;html=1;exitX=1;exitY=0.5;exitDx=0;exitDy=0;entryX=0;entryY=0.5;entryDx=0;entryDy=0;" edge="1" parent="WIyWlLk6GJQsqaUBKTNV-1" source="SWOzDiL3YIz-11qopB4E-227" target="SWOzDiL3YIz-11qopB4E-229">
          <mxGeometry relative="1" as="geometry" />
        </mxCell>
        <mxCell id="SWOzDiL3YIz-11qopB4E-228" style="edgeStyle=orthogonalEdgeStyle;rounded=0;orthogonalLoop=1;jettySize=auto;html=1;exitX=1;exitY=0.5;exitDx=0;exitDy=0;entryX=0;entryY=0.5;entryDx=0;entryDy=0;" edge="1" parent="WIyWlLk6GJQsqaUBKTNV-1" source="SWOzDiL3YIz-11qopB4E-229" target="SWOzDiL3YIz-11qopB4E-231">
          <mxGeometry relative="1" as="geometry" />
        </mxCell>
        <mxCell id="SWOzDiL3YIz-11qopB4E-229" value="" style="rounded=1;whiteSpace=wrap;html=1;fontStyle=1;strokeColor=#000000;fillColor=#72eb6e;" vertex="1" parent="WIyWlLk6GJQsqaUBKTNV-1">
          <mxGeometry x="1000" y="80" width="70" height="70" as="geometry" />
        </mxCell>
        <mxCell id="SWOzDiL3YIz-11qopB4E-230" style="edgeStyle=orthogonalEdgeStyle;rounded=0;orthogonalLoop=1;jettySize=auto;html=1;exitX=1;exitY=0.5;exitDx=0;exitDy=0;entryX=0;entryY=0.5;entryDx=0;entryDy=0;" edge="1" parent="WIyWlLk6GJQsqaUBKTNV-1" source="SWOzDiL3YIz-11qopB4E-231" target="SWOzDiL3YIz-11qopB4E-232">
          <mxGeometry relative="1" as="geometry" />
        </mxCell>
        <mxCell id="SWOzDiL3YIz-11qopB4E-231" value="" style="rounded=1;whiteSpace=wrap;html=1;fontStyle=1;fillColor=#fc527f;strokeColor=#000000;fontColor=#FFFFFF;strokeWidth=1;" vertex="1" parent="WIyWlLk6GJQsqaUBKTNV-1">
          <mxGeometry x="1160" y="80" width="70" height="70" as="geometry" />
        </mxCell>
        <mxCell id="SWOzDiL3YIz-11qopB4E-232" value="" style="rounded=1;whiteSpace=wrap;html=1;fontColor=#FFFFFF;strokeWidth=1;strokeColor=#000000;fillColor=#9f5ef0;" vertex="1" parent="WIyWlLk6GJQsqaUBKTNV-1">
          <mxGeometry x="1320" y="80" width="70" height="70" as="geometry" />
        </mxCell>
        <mxCell id="SWOzDiL3YIz-11qopB4E-233" style="edgeStyle=orthogonalEdgeStyle;rounded=0;orthogonalLoop=1;jettySize=auto;html=1;exitX=1;exitY=0.5;exitDx=0;exitDy=0;entryX=0;entryY=0.5;entryDx=0;entryDy=0;" edge="1" parent="WIyWlLk6GJQsqaUBKTNV-1" source="SWOzDiL3YIz-11qopB4E-234" target="SWOzDiL3YIz-11qopB4E-236">
          <mxGeometry relative="1" as="geometry" />
        </mxCell>
        <mxCell id="SWOzDiL3YIz-11qopB4E-235" style="edgeStyle=orthogonalEdgeStyle;rounded=0;orthogonalLoop=1;jettySize=auto;html=1;exitX=1;exitY=0.5;exitDx=0;exitDy=0;entryX=0;entryY=0.5;entryDx=0;entryDy=0;" edge="1" parent="WIyWlLk6GJQsqaUBKTNV-1" source="SWOzDiL3YIz-11qopB4E-236" target="SWOzDiL3YIz-11qopB4E-238">
          <mxGeometry relative="1" as="geometry" />
        </mxCell>
        <mxCell id="SWOzDiL3YIz-11qopB4E-236" value="" style="rounded=1;whiteSpace=wrap;html=1;fontStyle=1;strokeColor=#000000;fillColor=#72eb6e;" vertex="1" parent="WIyWlLk6GJQsqaUBKTNV-1">
          <mxGeometry x="1010" y="90" width="70" height="70" as="geometry" />
        </mxCell>
        <mxCell id="SWOzDiL3YIz-11qopB4E-237" style="edgeStyle=orthogonalEdgeStyle;rounded=0;orthogonalLoop=1;jettySize=auto;html=1;exitX=1;exitY=0.5;exitDx=0;exitDy=0;entryX=0;entryY=0.5;entryDx=0;entryDy=0;" edge="1" parent="WIyWlLk6GJQsqaUBKTNV-1" source="SWOzDiL3YIz-11qopB4E-238" target="SWOzDiL3YIz-11qopB4E-239">
          <mxGeometry relative="1" as="geometry" />
        </mxCell>
        <mxCell id="SWOzDiL3YIz-11qopB4E-238" value="" style="rounded=1;whiteSpace=wrap;html=1;fontStyle=1;fillColor=#fc527f;strokeColor=#000000;fontColor=#FFFFFF;strokeWidth=1;" vertex="1" parent="WIyWlLk6GJQsqaUBKTNV-1">
          <mxGeometry x="1170" y="90" width="70" height="70" as="geometry" />
        </mxCell>
        <mxCell id="SWOzDiL3YIz-11qopB4E-239" value="" style="rounded=1;whiteSpace=wrap;html=1;fontColor=#FFFFFF;strokeWidth=1;strokeColor=#000000;fillColor=#9f5ef0;" vertex="1" parent="WIyWlLk6GJQsqaUBKTNV-1">
          <mxGeometry x="1330" y="90" width="70" height="70" as="geometry" />
        </mxCell>
        <mxCell id="SWOzDiL3YIz-11qopB4E-240" style="edgeStyle=orthogonalEdgeStyle;rounded=0;orthogonalLoop=1;jettySize=auto;html=1;exitX=1;exitY=0.5;exitDx=0;exitDy=0;entryX=0;entryY=0.5;entryDx=0;entryDy=0;" edge="1" parent="WIyWlLk6GJQsqaUBKTNV-1" source="SWOzDiL3YIz-11qopB4E-241" target="SWOzDiL3YIz-11qopB4E-243">
          <mxGeometry relative="1" as="geometry">
            <mxPoint x="950" y="135" as="sourcePoint" />
          </mxGeometry>
        </mxCell>
        <mxCell id="SWOzDiL3YIz-11qopB4E-242" style="edgeStyle=orthogonalEdgeStyle;rounded=0;orthogonalLoop=1;jettySize=auto;html=1;exitX=1;exitY=0.5;exitDx=0;exitDy=0;entryX=0;entryY=0.5;entryDx=0;entryDy=0;" edge="1" parent="WIyWlLk6GJQsqaUBKTNV-1" source="SWOzDiL3YIz-11qopB4E-243" target="SWOzDiL3YIz-11qopB4E-245">
          <mxGeometry relative="1" as="geometry" />
        </mxCell>
        <mxCell id="SWOzDiL3YIz-11qopB4E-243" value="Delay" style="rounded=1;whiteSpace=wrap;html=1;fontStyle=1;strokeColor=#000000;fillColor=#72eb6e;" vertex="1" parent="WIyWlLk6GJQsqaUBKTNV-1">
          <mxGeometry x="1020" y="100" width="70" height="70" as="geometry" />
        </mxCell>
        <mxCell id="SWOzDiL3YIz-11qopB4E-244" style="edgeStyle=orthogonalEdgeStyle;rounded=0;orthogonalLoop=1;jettySize=auto;html=1;exitX=1;exitY=0.5;exitDx=0;exitDy=0;entryX=0;entryY=0.5;entryDx=0;entryDy=0;" edge="1" parent="WIyWlLk6GJQsqaUBKTNV-1" source="SWOzDiL3YIz-11qopB4E-245" target="SWOzDiL3YIz-11qopB4E-246">
          <mxGeometry relative="1" as="geometry" />
        </mxCell>
        <mxCell id="SWOzDiL3YIz-11qopB4E-245" value="Gain" style="rounded=1;whiteSpace=wrap;html=1;fontStyle=1;fillColor=#fc527f;strokeColor=#000000;fontColor=#000000;strokeWidth=1;" vertex="1" parent="WIyWlLk6GJQsqaUBKTNV-1">
          <mxGeometry x="1180" y="100" width="70" height="70" as="geometry" />
        </mxCell>
        <mxCell id="SWOzDiL3YIz-11qopB4E-246" value="Parametric&lt;div&gt;EQ&lt;/div&gt;&lt;div&gt;(10 Bands)&lt;/div&gt;" style="rounded=1;whiteSpace=wrap;html=1;fontColor=#FFFFFF;strokeWidth=1;strokeColor=#000000;fillColor=#9f5ef0;fontStyle=1" vertex="1" parent="WIyWlLk6GJQsqaUBKTNV-1">
          <mxGeometry x="1340" y="100" width="70" height="70" as="geometry" />
        </mxCell>
        <mxCell id="SWOzDiL3YIz-11qopB4E-252" style="edgeStyle=orthogonalEdgeStyle;rounded=0;orthogonalLoop=1;jettySize=auto;html=1;exitX=0.496;exitY=0.981;exitDx=0;exitDy=0;exitPerimeter=0;" edge="1" parent="WIyWlLk6GJQsqaUBKTNV-1">
          <mxGeometry relative="1" as="geometry">
            <mxPoint x="714.797619047619" y="200" as="targetPoint" />
            <mxPoint x="714.72" y="128.66999999999996" as="sourcePoint" />
          </mxGeometry>
        </mxCell>
        <mxCell id="SWOzDiL3YIz-11qopB4E-253" style="edgeStyle=orthogonalEdgeStyle;rounded=0;orthogonalLoop=1;jettySize=auto;html=1;exitX=0.496;exitY=0.981;exitDx=0;exitDy=0;exitPerimeter=0;" edge="1" parent="WIyWlLk6GJQsqaUBKTNV-1">
          <mxGeometry relative="1" as="geometry">
            <mxPoint x="725" y="200" as="targetPoint" />
            <mxPoint x="724.72" y="138.66999999999996" as="sourcePoint" />
          </mxGeometry>
        </mxCell>
        <mxCell id="SWOzDiL3YIz-11qopB4E-254" style="edgeStyle=orthogonalEdgeStyle;rounded=0;orthogonalLoop=1;jettySize=auto;html=1;exitX=0.496;exitY=0.981;exitDx=0;exitDy=0;exitPerimeter=0;" edge="1" parent="WIyWlLk6GJQsqaUBKTNV-1">
          <mxGeometry relative="1" as="geometry">
            <mxPoint x="745" y="200" as="targetPoint" />
            <mxPoint x="744.72" y="158.66999999999996" as="sourcePoint" />
          </mxGeometry>
        </mxCell>
        <mxCell id="SWOzDiL3YIz-11qopB4E-255" style="edgeStyle=orthogonalEdgeStyle;rounded=0;orthogonalLoop=1;jettySize=auto;html=1;exitX=0.496;exitY=0.981;exitDx=0;exitDy=0;exitPerimeter=0;" edge="1" parent="WIyWlLk6GJQsqaUBKTNV-1">
          <mxGeometry relative="1" as="geometry">
            <mxPoint x="755" y="200" as="targetPoint" />
            <mxPoint x="754.72" y="168.66999999999996" as="sourcePoint" />
          </mxGeometry>
        </mxCell>
        <mxCell id="SWOzDiL3YIz-11qopB4E-256" value="Lows" style="edgeStyle=orthogonalEdgeStyle;rounded=0;orthogonalLoop=1;jettySize=auto;html=1;exitX=0.496;exitY=0.981;exitDx=0;exitDy=0;exitPerimeter=0;fontStyle=1" edge="1" parent="WIyWlLk6GJQsqaUBKTNV-1">
          <mxGeometry relative="1" as="geometry">
            <mxPoint x="734.9" y="200" as="targetPoint" />
            <mxPoint x="734.9" y="159" as="sourcePoint" />
          </mxGeometry>
        </mxCell>
        <mxCell id="SWOzDiL3YIz-11qopB4E-257" value="" style="rounded=1;whiteSpace=wrap;html=1;strokeColor=#000000;fillColor=#53f3f8;fontStyle=1;strokeWidth=1;" vertex="1" parent="WIyWlLk6GJQsqaUBKTNV-1">
          <mxGeometry x="660" y="60" width="70" height="70" as="geometry" />
        </mxCell>
        <mxCell id="SWOzDiL3YIz-11qopB4E-258" value="" style="rounded=1;whiteSpace=wrap;html=1;strokeWidth=1;strokeColor=#FFFFFF;fillColor=#000000;" vertex="1" parent="WIyWlLk6GJQsqaUBKTNV-1">
          <mxGeometry x="60" y="60" width="70" height="70" as="geometry" />
        </mxCell>
        <mxCell id="SWOzDiL3YIz-11qopB4E-259" value="Input&lt;div&gt;Sel&lt;span style=&quot;background-color: initial;&quot;&gt;ect&lt;/span&gt;&lt;/div&gt;" style="rounded=1;whiteSpace=wrap;html=1;strokeWidth=1;fontStyle=1;strokeColor=#FFFFFF;fillColor=#000000;fontColor=#FFFFFF;" vertex="1" parent="WIyWlLk6GJQsqaUBKTNV-1">
          <mxGeometry x="100" y="200" width="70" height="70" as="geometry" />
        </mxCell>
        <mxCell id="SWOzDiL3YIz-11qopB4E-260" value="Low&lt;div&gt;&lt;span style=&quot;background-color: initial;&quot;&gt;Shelving&lt;/span&gt;&lt;/div&gt;" style="rounded=1;whiteSpace=wrap;html=1;points=[[0,0,0,0,0],[0,0.14,0,0,0],[0,0.29,0,0,0],[0,0.43,0,0,0],[0,0.57,0,0,0],[0,0.71,0,0,0],[0,0.86,0,0,0],[0,1,0,0,0],[0.25,0,0,0,0],[0.25,1,0,0,0],[0.5,0,0,0,0],[0.5,1,0,0,0],[0.75,0,0,0,0],[0.75,1,0,0,0],[1,0,0,0,0],[1,0.14,0,0,0],[1,0.29,0,0,0],[1,0.43,0,0,0],[1,0.57,0,0,0],[1,0.71,0,0,0],[1,0.86,0,0,0],[1,1,0,0,0]];strokeWidth=1;strokeColor=#000000;fontColor=#FFFFFF;fontStyle=1;fillColor=#005ef0;" vertex="1" parent="WIyWlLk6GJQsqaUBKTNV-1">
          <mxGeometry x="200" y="40" width="70" height="230" as="geometry" />
        </mxCell>
        <mxCell id="SWOzDiL3YIz-11qopB4E-261" value="Parametric&lt;div&gt;EQ&lt;/div&gt;&lt;div&gt;(10 Bands)&lt;/div&gt;" style="rounded=1;whiteSpace=wrap;html=1;points=[[0,0,0,0,0],[0,0.14,0,0,0],[0,0.29,0,0,0],[0,0.43,0,0,0],[0,0.57,0,0,0],[0,0.71,0,0,0],[0,0.86,0,0,0],[0,1,0,0,0],[0.25,0,0,0,0],[0.25,1,0,0,0],[0.5,0,0,0,0],[0.5,1,0,0,0],[0.75,0,0,0,0],[0.75,1,0,0,0],[1,0,0,0,0],[1,0.14,0,0,0],[1,0.29,0,0,0],[1,0.43,0,0,0],[1,0.57,0,0,0],[1,0.71,0,0,0],[1,0.86,0,0,0],[1,1,0,0,0]];fontColor=#FFFFFF;strokeWidth=1;strokeColor=#000000;fillColor=#9f5ef0;fontStyle=1" vertex="1" parent="WIyWlLk6GJQsqaUBKTNV-1">
          <mxGeometry x="300" y="40" width="70" height="230" as="geometry" />
        </mxCell>
        <mxCell id="SWOzDiL3YIz-11qopB4E-262" value="High&lt;div&gt;Shelving&lt;/div&gt;" style="rounded=1;whiteSpace=wrap;html=1;points=[[0,0,0,0,0],[0,0.14,0,0,0],[0,0.29,0,0,0],[0,0.43,0,0,0],[0,0.57,0,0,0],[0,0.71,0,0,0],[0,0.86,0,0,0],[0,1,0,0,0],[0.25,0,0,0,0],[0.25,1,0,0,0],[0.5,0,0,0,0],[0.5,1,0,0,0],[0.75,0,0,0,0],[0.75,1,0,0,0],[1,0,0,0,0],[1,0.14,0,0,0],[1,0.29,0,0,0],[1,0.43,0,0,0],[1,0.57,0,0,0],[1,0.71,0,0,0],[1,0.86,0,0,0],[1,1,0,0,0]];fontStyle=1;fontColor=#FFFFFF;strokeColor=#000000;strokeWidth=1;fillColor=#005ef0;glass=0;shadow=0;" vertex="1" parent="WIyWlLk6GJQsqaUBKTNV-1">
          <mxGeometry x="399" y="40" width="70" height="230" as="geometry" />
        </mxCell>
        <mxCell id="SWOzDiL3YIz-11qopB4E-263" style="edgeStyle=orthogonalEdgeStyle;rounded=0;orthogonalLoop=1;jettySize=auto;html=1;exitX=1;exitY=0.5;exitDx=0;exitDy=0;entryX=0;entryY=0.239;entryDx=0;entryDy=0;entryPerimeter=0;" edge="1" parent="WIyWlLk6GJQsqaUBKTNV-1" source="SWOzDiL3YIz-11qopB4E-258" target="SWOzDiL3YIz-11qopB4E-260">
          <mxGeometry relative="1" as="geometry" />
        </mxCell>
        <mxCell id="SWOzDiL3YIz-11qopB4E-264" value="" style="rounded=1;whiteSpace=wrap;html=1;strokeWidth=1;strokeColor=#FFFFFF;fillColor=#000000;" vertex="1" parent="WIyWlLk6GJQsqaUBKTNV-1">
          <mxGeometry x="70" y="70" width="70" height="70" as="geometry" />
        </mxCell>
        <mxCell id="SWOzDiL3YIz-11qopB4E-265" style="edgeStyle=orthogonalEdgeStyle;rounded=0;orthogonalLoop=1;jettySize=auto;html=1;exitX=1;exitY=0.5;exitDx=0;exitDy=0;entryX=0;entryY=0.283;entryDx=0;entryDy=0;entryPerimeter=0;" edge="1" parent="WIyWlLk6GJQsqaUBKTNV-1" source="SWOzDiL3YIz-11qopB4E-264" target="SWOzDiL3YIz-11qopB4E-260">
          <mxGeometry relative="1" as="geometry" />
        </mxCell>
        <mxCell id="SWOzDiL3YIz-11qopB4E-266" value="" style="rounded=1;whiteSpace=wrap;html=1;strokeWidth=1;strokeColor=#FFFFFF;fillColor=#000000;" vertex="1" parent="WIyWlLk6GJQsqaUBKTNV-1">
          <mxGeometry x="80" y="80" width="70" height="70" as="geometry" />
        </mxCell>
        <mxCell id="SWOzDiL3YIz-11qopB4E-267" style="edgeStyle=orthogonalEdgeStyle;rounded=0;orthogonalLoop=1;jettySize=auto;html=1;exitX=1;exitY=0.5;exitDx=0;exitDy=0;entryX=0;entryY=0.326;entryDx=0;entryDy=0;entryPerimeter=0;" edge="1" parent="WIyWlLk6GJQsqaUBKTNV-1" source="SWOzDiL3YIz-11qopB4E-266" target="SWOzDiL3YIz-11qopB4E-260">
          <mxGeometry relative="1" as="geometry">
            <mxPoint x="190" y="115" as="targetPoint" />
          </mxGeometry>
        </mxCell>
        <mxCell id="SWOzDiL3YIz-11qopB4E-268" value="" style="rounded=1;whiteSpace=wrap;html=1;strokeWidth=1;strokeColor=#FFFFFF;fillColor=#000000;" vertex="1" parent="WIyWlLk6GJQsqaUBKTNV-1">
          <mxGeometry x="90" y="90" width="70" height="70" as="geometry" />
        </mxCell>
        <mxCell id="SWOzDiL3YIz-11qopB4E-269" style="edgeStyle=orthogonalEdgeStyle;rounded=0;orthogonalLoop=1;jettySize=auto;html=1;exitX=1;exitY=0.5;exitDx=0;exitDy=0;entryX=0;entryY=0.37;entryDx=0;entryDy=0;entryPerimeter=0;" edge="1" parent="WIyWlLk6GJQsqaUBKTNV-1" source="SWOzDiL3YIz-11qopB4E-268" target="SWOzDiL3YIz-11qopB4E-260">
          <mxGeometry relative="1" as="geometry" />
        </mxCell>
        <mxCell id="SWOzDiL3YIz-11qopB4E-270" value="Input&lt;div&gt;Sel&lt;span style=&quot;background-color: initial;&quot;&gt;ect&lt;/span&gt;&lt;/div&gt;" style="rounded=1;whiteSpace=wrap;html=1;strokeWidth=1;fontStyle=1;strokeColor=#FFFFFF;fillColor=#000000;fontColor=#FFFFFF;" vertex="1" parent="WIyWlLk6GJQsqaUBKTNV-1">
          <mxGeometry x="100" y="100" width="70" height="70" as="geometry" />
        </mxCell>
        <mxCell id="SWOzDiL3YIz-11qopB4E-273" style="edgeStyle=orthogonalEdgeStyle;rounded=0;orthogonalLoop=1;jettySize=auto;html=1;exitX=1;exitY=0.5;exitDx=0;exitDy=0;" edge="1" parent="WIyWlLk6GJQsqaUBKTNV-1">
          <mxGeometry relative="1" as="geometry">
            <mxPoint x="270" y="114.86000000000001" as="sourcePoint" />
            <mxPoint x="300" y="115" as="targetPoint" />
          </mxGeometry>
        </mxCell>
        <mxCell id="SWOzDiL3YIz-11qopB4E-274" style="edgeStyle=orthogonalEdgeStyle;rounded=0;orthogonalLoop=1;jettySize=auto;html=1;exitX=1;exitY=0.5;exitDx=0;exitDy=0;" edge="1" parent="WIyWlLk6GJQsqaUBKTNV-1">
          <mxGeometry relative="1" as="geometry">
            <mxPoint x="270" y="124.86000000000001" as="sourcePoint" />
            <mxPoint x="300" y="125" as="targetPoint" />
          </mxGeometry>
        </mxCell>
        <mxCell id="SWOzDiL3YIz-11qopB4E-275" style="edgeStyle=orthogonalEdgeStyle;rounded=0;orthogonalLoop=1;jettySize=auto;html=1;exitX=1;exitY=0.5;exitDx=0;exitDy=0;" edge="1" parent="WIyWlLk6GJQsqaUBKTNV-1">
          <mxGeometry relative="1" as="geometry">
            <mxPoint x="270" y="134.86" as="sourcePoint" />
            <mxPoint x="300" y="135" as="targetPoint" />
          </mxGeometry>
        </mxCell>
        <mxCell id="SWOzDiL3YIz-11qopB4E-276" style="edgeStyle=orthogonalEdgeStyle;rounded=0;orthogonalLoop=1;jettySize=auto;html=1;exitX=1;exitY=0.5;exitDx=0;exitDy=0;" edge="1" parent="WIyWlLk6GJQsqaUBKTNV-1">
          <mxGeometry relative="1" as="geometry">
            <mxPoint x="270" y="104.86000000000001" as="sourcePoint" />
            <mxPoint x="300" y="105" as="targetPoint" />
          </mxGeometry>
        </mxCell>
        <mxCell id="SWOzDiL3YIz-11qopB4E-277" style="edgeStyle=orthogonalEdgeStyle;rounded=0;orthogonalLoop=1;jettySize=auto;html=1;exitX=1;exitY=0.5;exitDx=0;exitDy=0;" edge="1" parent="WIyWlLk6GJQsqaUBKTNV-1">
          <mxGeometry relative="1" as="geometry">
            <mxPoint x="270" y="94.86000000000001" as="sourcePoint" />
            <mxPoint x="300" y="95" as="targetPoint" />
          </mxGeometry>
        </mxCell>
        <mxCell id="SWOzDiL3YIz-11qopB4E-278" style="edgeStyle=orthogonalEdgeStyle;rounded=0;orthogonalLoop=1;jettySize=auto;html=1;exitX=1;exitY=0.5;exitDx=0;exitDy=0;" edge="1" parent="WIyWlLk6GJQsqaUBKTNV-1">
          <mxGeometry relative="1" as="geometry">
            <mxPoint x="270" y="234.86" as="sourcePoint" />
            <mxPoint x="300" y="235" as="targetPoint" />
          </mxGeometry>
        </mxCell>
        <mxCell id="SWOzDiL3YIz-11qopB4E-279" style="edgeStyle=orthogonalEdgeStyle;rounded=0;orthogonalLoop=1;jettySize=auto;html=1;exitX=1;exitY=0.5;exitDx=0;exitDy=0;" edge="1" parent="WIyWlLk6GJQsqaUBKTNV-1">
          <mxGeometry relative="1" as="geometry">
            <mxPoint x="370" y="114.88999999999999" as="sourcePoint" />
            <mxPoint x="400" y="115.02999999999997" as="targetPoint" />
          </mxGeometry>
        </mxCell>
        <mxCell id="SWOzDiL3YIz-11qopB4E-280" style="edgeStyle=orthogonalEdgeStyle;rounded=0;orthogonalLoop=1;jettySize=auto;html=1;exitX=1;exitY=0.5;exitDx=0;exitDy=0;" edge="1" parent="WIyWlLk6GJQsqaUBKTNV-1">
          <mxGeometry relative="1" as="geometry">
            <mxPoint x="370" y="124.88999999999999" as="sourcePoint" />
            <mxPoint x="400" y="125.02999999999997" as="targetPoint" />
          </mxGeometry>
        </mxCell>
        <mxCell id="SWOzDiL3YIz-11qopB4E-281" style="edgeStyle=orthogonalEdgeStyle;rounded=0;orthogonalLoop=1;jettySize=auto;html=1;exitX=1;exitY=0.5;exitDx=0;exitDy=0;" edge="1" parent="WIyWlLk6GJQsqaUBKTNV-1">
          <mxGeometry relative="1" as="geometry">
            <mxPoint x="370" y="134.89" as="sourcePoint" />
            <mxPoint x="400" y="135.02999999999997" as="targetPoint" />
          </mxGeometry>
        </mxCell>
        <mxCell id="SWOzDiL3YIz-11qopB4E-282" style="edgeStyle=orthogonalEdgeStyle;rounded=0;orthogonalLoop=1;jettySize=auto;html=1;exitX=1;exitY=0.5;exitDx=0;exitDy=0;" edge="1" parent="WIyWlLk6GJQsqaUBKTNV-1">
          <mxGeometry relative="1" as="geometry">
            <mxPoint x="370" y="104.88999999999999" as="sourcePoint" />
            <mxPoint x="400" y="105.02999999999997" as="targetPoint" />
          </mxGeometry>
        </mxCell>
        <mxCell id="SWOzDiL3YIz-11qopB4E-283" style="edgeStyle=orthogonalEdgeStyle;rounded=0;orthogonalLoop=1;jettySize=auto;html=1;exitX=1;exitY=0.5;exitDx=0;exitDy=0;" edge="1" parent="WIyWlLk6GJQsqaUBKTNV-1">
          <mxGeometry relative="1" as="geometry">
            <mxPoint x="370" y="94.88999999999999" as="sourcePoint" />
            <mxPoint x="400" y="95.02999999999997" as="targetPoint" />
          </mxGeometry>
        </mxCell>
        <mxCell id="SWOzDiL3YIz-11qopB4E-284" style="edgeStyle=orthogonalEdgeStyle;rounded=0;orthogonalLoop=1;jettySize=auto;html=1;exitX=1;exitY=0.5;exitDx=0;exitDy=0;" edge="1" parent="WIyWlLk6GJQsqaUBKTNV-1">
          <mxGeometry relative="1" as="geometry">
            <mxPoint x="370" y="234.89" as="sourcePoint" />
            <mxPoint x="400" y="235.02999999999997" as="targetPoint" />
          </mxGeometry>
        </mxCell>
        <mxCell id="SWOzDiL3YIz-11qopB4E-285" style="edgeStyle=orthogonalEdgeStyle;rounded=0;orthogonalLoop=1;jettySize=auto;html=1;exitX=1;exitY=0.5;exitDx=0;exitDy=0;entryX=0;entryY=0.5;entryDx=0;entryDy=0;" edge="1" parent="WIyWlLk6GJQsqaUBKTNV-1" source="SWOzDiL3YIz-11qopB4E-286" target="SWOzDiL3YIz-11qopB4E-288">
          <mxGeometry relative="1" as="geometry" />
        </mxCell>
        <mxCell id="SWOzDiL3YIz-11qopB4E-286" value="Gain" style="rounded=1;whiteSpace=wrap;html=1;fontStyle=1;fillColor=#fc527f;strokeColor=#000000;fontColor=#000000;strokeWidth=1;" vertex="1" parent="WIyWlLk6GJQsqaUBKTNV-1">
          <mxGeometry x="500" y="200" width="70" height="70" as="geometry" />
        </mxCell>
        <mxCell id="SWOzDiL3YIz-11qopB4E-287" style="edgeStyle=orthogonalEdgeStyle;rounded=0;orthogonalLoop=1;jettySize=auto;html=1;exitX=1;exitY=0.5;exitDx=0;exitDy=0;entryX=0;entryY=0.5;entryDx=0;entryDy=0;" edge="1" parent="WIyWlLk6GJQsqaUBKTNV-1" source="SWOzDiL3YIz-11qopB4E-288" target="SWOzDiL3YIz-11qopB4E-289">
          <mxGeometry relative="1" as="geometry" />
        </mxCell>
        <mxCell id="SWOzDiL3YIz-11qopB4E-288" value="Lowpass" style="rounded=1;whiteSpace=wrap;html=1;strokeColor=#000000;fillColor=#53f3f8;fontStyle=1;strokeWidth=1;" vertex="1" parent="WIyWlLk6GJQsqaUBKTNV-1">
          <mxGeometry x="600" y="200" width="70" height="70" as="geometry" />
        </mxCell>
        <mxCell id="SWOzDiL3YIz-11qopB4E-289" value="Summation" style="rounded=1;whiteSpace=wrap;html=1;fontStyle=1;strokeWidth=1;" vertex="1" parent="WIyWlLk6GJQsqaUBKTNV-1">
          <mxGeometry x="700" y="200" width="70" height="70" as="geometry" />
        </mxCell>
        <mxCell id="SWOzDiL3YIz-11qopB4E-290" style="edgeStyle=orthogonalEdgeStyle;rounded=0;orthogonalLoop=1;jettySize=auto;html=1;exitX=1;exitY=0.5;exitDx=0;exitDy=0;entryX=0;entryY=0.5;entryDx=0;entryDy=0;" edge="1" parent="WIyWlLk6GJQsqaUBKTNV-1" source="SWOzDiL3YIz-11qopB4E-291" target="SWOzDiL3YIz-11qopB4E-317">
          <mxGeometry relative="1" as="geometry">
            <mxPoint x="950" y="235" as="sourcePoint" />
            <mxPoint x="999.9999999999998" y="235" as="targetPoint" />
          </mxGeometry>
        </mxCell>
        <mxCell id="SWOzDiL3YIz-11qopB4E-291" value="Phase" style="rounded=1;whiteSpace=wrap;html=1;fontStyle=1;strokeColor=#000000;fillColor=#fd8d27;strokeWidth=1;fontColor=#000000;" vertex="1" parent="WIyWlLk6GJQsqaUBKTNV-1">
          <mxGeometry x="860" y="200" width="70" height="70" as="geometry" />
        </mxCell>
        <mxCell id="SWOzDiL3YIz-11qopB4E-298" value="Highpass" style="rounded=1;whiteSpace=wrap;html=1;strokeColor=#000000;fillColor=#53f3f8;fontStyle=1" vertex="1" parent="WIyWlLk6GJQsqaUBKTNV-1">
          <mxGeometry x="1500" y="200" width="70" height="70" as="geometry" />
        </mxCell>
        <mxCell id="SWOzDiL3YIz-11qopB4E-299" value="" style="rounded=1;whiteSpace=wrap;html=1;strokeColor=#000000;fillColor=#53f3f8;fontStyle=1;strokeWidth=1;" vertex="1" parent="WIyWlLk6GJQsqaUBKTNV-1">
          <mxGeometry x="670" y="70" width="70" height="70" as="geometry" />
        </mxCell>
        <mxCell id="SWOzDiL3YIz-11qopB4E-300" value="" style="rounded=1;whiteSpace=wrap;html=1;strokeColor=#000000;fillColor=#53f3f8;fontStyle=1;strokeWidth=1;" vertex="1" parent="WIyWlLk6GJQsqaUBKTNV-1">
          <mxGeometry x="680" y="80" width="70" height="70" as="geometry" />
        </mxCell>
        <mxCell id="SWOzDiL3YIz-11qopB4E-301" value="" style="rounded=1;whiteSpace=wrap;html=1;strokeColor=#000000;fillColor=#53f3f8;fontStyle=1;strokeWidth=1;" vertex="1" parent="WIyWlLk6GJQsqaUBKTNV-1">
          <mxGeometry x="690" y="90" width="70" height="70" as="geometry" />
        </mxCell>
        <mxCell id="SWOzDiL3YIz-11qopB4E-302" value="Crossover" style="rounded=1;whiteSpace=wrap;html=1;strokeColor=#000000;fillColor=#53f3f8;fontStyle=1;strokeWidth=1;" vertex="1" parent="WIyWlLk6GJQsqaUBKTNV-1">
          <mxGeometry x="700" y="100" width="70" height="70" as="geometry" />
        </mxCell>
        <mxCell id="SWOzDiL3YIz-11qopB4E-303" style="edgeStyle=orthogonalEdgeStyle;rounded=0;orthogonalLoop=1;jettySize=auto;html=1;exitX=1;exitY=0.5;exitDx=0;exitDy=0;entryX=0;entryY=0.5;entryDx=0;entryDy=0;" edge="1" parent="WIyWlLk6GJQsqaUBKTNV-1" target="SWOzDiL3YIz-11qopB4E-300">
          <mxGeometry relative="1" as="geometry">
            <mxPoint x="469" y="114.86000000000001" as="sourcePoint" />
            <mxPoint x="499" y="115" as="targetPoint" />
          </mxGeometry>
        </mxCell>
        <mxCell id="SWOzDiL3YIz-11qopB4E-304" style="edgeStyle=orthogonalEdgeStyle;rounded=0;orthogonalLoop=1;jettySize=auto;html=1;exitX=1;exitY=0.5;exitDx=0;exitDy=0;entryX=0;entryY=0.5;entryDx=0;entryDy=0;" edge="1" parent="WIyWlLk6GJQsqaUBKTNV-1" target="SWOzDiL3YIz-11qopB4E-301">
          <mxGeometry relative="1" as="geometry">
            <mxPoint x="469" y="124.86000000000001" as="sourcePoint" />
            <mxPoint x="499" y="125" as="targetPoint" />
          </mxGeometry>
        </mxCell>
        <mxCell id="SWOzDiL3YIz-11qopB4E-305" style="edgeStyle=orthogonalEdgeStyle;rounded=0;orthogonalLoop=1;jettySize=auto;html=1;exitX=1;exitY=0.5;exitDx=0;exitDy=0;entryX=0;entryY=0.5;entryDx=0;entryDy=0;" edge="1" parent="WIyWlLk6GJQsqaUBKTNV-1" target="SWOzDiL3YIz-11qopB4E-302">
          <mxGeometry relative="1" as="geometry">
            <mxPoint x="469" y="134.86" as="sourcePoint" />
            <mxPoint x="499" y="135" as="targetPoint" />
          </mxGeometry>
        </mxCell>
        <mxCell id="SWOzDiL3YIz-11qopB4E-306" style="edgeStyle=orthogonalEdgeStyle;rounded=0;orthogonalLoop=1;jettySize=auto;html=1;exitX=1;exitY=0.5;exitDx=0;exitDy=0;entryX=0;entryY=0.5;entryDx=0;entryDy=0;" edge="1" parent="WIyWlLk6GJQsqaUBKTNV-1" target="SWOzDiL3YIz-11qopB4E-299">
          <mxGeometry relative="1" as="geometry">
            <mxPoint x="469" y="104.86000000000001" as="sourcePoint" />
            <mxPoint x="499" y="105" as="targetPoint" />
          </mxGeometry>
        </mxCell>
        <mxCell id="SWOzDiL3YIz-11qopB4E-307" style="edgeStyle=orthogonalEdgeStyle;rounded=0;orthogonalLoop=1;jettySize=auto;html=1;exitX=1;exitY=0.5;exitDx=0;exitDy=0;entryX=0;entryY=0.5;entryDx=0;entryDy=0;" edge="1" parent="WIyWlLk6GJQsqaUBKTNV-1" target="SWOzDiL3YIz-11qopB4E-257">
          <mxGeometry relative="1" as="geometry">
            <mxPoint x="469" y="94.86000000000001" as="sourcePoint" />
            <mxPoint x="640" y="95" as="targetPoint" />
          </mxGeometry>
        </mxCell>
        <mxCell id="SWOzDiL3YIz-11qopB4E-308" style="edgeStyle=orthogonalEdgeStyle;rounded=0;orthogonalLoop=1;jettySize=auto;html=1;exitX=1;exitY=0.5;exitDx=0;exitDy=0;" edge="1" parent="WIyWlLk6GJQsqaUBKTNV-1">
          <mxGeometry relative="1" as="geometry">
            <mxPoint x="469" y="234.86" as="sourcePoint" />
            <mxPoint x="499" y="235" as="targetPoint" />
          </mxGeometry>
        </mxCell>
        <mxCell id="SWOzDiL3YIz-11qopB4E-336" style="edgeStyle=orthogonalEdgeStyle;rounded=0;orthogonalLoop=1;jettySize=auto;html=1;exitX=1;exitY=0.5;exitDx=0;exitDy=0;entryX=0;entryY=0.5;entryDx=0;entryDy=0;" edge="1" parent="WIyWlLk6GJQsqaUBKTNV-1" source="SWOzDiL3YIz-11qopB4E-317" target="SWOzDiL3YIz-11qopB4E-319">
          <mxGeometry relative="1" as="geometry" />
        </mxCell>
        <mxCell id="SWOzDiL3YIz-11qopB4E-317" value="Delay" style="rounded=1;whiteSpace=wrap;html=1;fontStyle=1;strokeColor=#000000;fillColor=#72eb6e;" vertex="1" parent="WIyWlLk6GJQsqaUBKTNV-1">
          <mxGeometry x="1020" y="200" width="70" height="70" as="geometry" />
        </mxCell>
        <mxCell id="SWOzDiL3YIz-11qopB4E-319" value="Gain" style="rounded=1;whiteSpace=wrap;html=1;fontStyle=1;fillColor=#fc527f;strokeColor=#000000;fontColor=#000000;strokeWidth=1;" vertex="1" parent="WIyWlLk6GJQsqaUBKTNV-1">
          <mxGeometry x="1180" y="200" width="70" height="70" as="geometry" />
        </mxCell>
        <mxCell id="SWOzDiL3YIz-11qopB4E-328" value="Lsr" style="text;html=1;align=left;verticalAlign=middle;whiteSpace=wrap;rounded=0;fontStyle=1" vertex="1" parent="WIyWlLk6GJQsqaUBKTNV-1">
          <mxGeometry x="1570" y="110" width="30" height="30" as="geometry" />
        </mxCell>
        <mxCell id="SWOzDiL3YIz-11qopB4E-329" value="Rsr" style="text;html=1;align=left;verticalAlign=middle;whiteSpace=wrap;rounded=0;fontStyle=1" vertex="1" parent="WIyWlLk6GJQsqaUBKTNV-1">
          <mxGeometry x="1580" y="120" width="30" height="30" as="geometry" />
        </mxCell>
        <mxCell id="SWOzDiL3YIz-11qopB4E-330" value="Sub" style="text;html=1;align=left;verticalAlign=middle;whiteSpace=wrap;rounded=0;fontStyle=1" vertex="1" parent="WIyWlLk6GJQsqaUBKTNV-1">
          <mxGeometry x="1600" y="220" width="40" height="30" as="geometry" />
        </mxCell>
        <mxCell id="SWOzDiL3YIz-11qopB4E-333" style="edgeStyle=orthogonalEdgeStyle;rounded=0;orthogonalLoop=1;jettySize=auto;html=1;exitX=1;exitY=0.5;exitDx=0;exitDy=0;entryX=0;entryY=0.5;entryDx=0;entryDy=0;" edge="1" parent="WIyWlLk6GJQsqaUBKTNV-1" source="SWOzDiL3YIz-11qopB4E-289">
          <mxGeometry relative="1" as="geometry">
            <mxPoint x="790" y="235" as="sourcePoint" />
            <mxPoint x="860" y="234.89999999999998" as="targetPoint" />
          </mxGeometry>
        </mxCell>
        <mxCell id="SWOzDiL3YIz-11qopB4E-338" style="edgeStyle=orthogonalEdgeStyle;rounded=0;orthogonalLoop=1;jettySize=auto;html=1;exitX=1;exitY=0.5;exitDx=0;exitDy=0;entryX=0;entryY=0.5;entryDx=0;entryDy=0;" edge="1" parent="WIyWlLk6GJQsqaUBKTNV-1" source="SWOzDiL3YIz-11qopB4E-321" target="SWOzDiL3YIz-11qopB4E-298">
          <mxGeometry relative="1" as="geometry">
            <mxPoint x="1430" y="235" as="sourcePoint" />
          </mxGeometry>
        </mxCell>
        <mxCell id="SWOzDiL3YIz-11qopB4E-321" value="Parametric&lt;div&gt;EQ&lt;/div&gt;&lt;div&gt;(10 Bands)&lt;/div&gt;" style="rounded=1;whiteSpace=wrap;html=1;fontColor=#FFFFFF;strokeWidth=1;strokeColor=#000000;fillColor=#9f5ef0;fontStyle=1" vertex="1" parent="WIyWlLk6GJQsqaUBKTNV-1">
          <mxGeometry x="1340" y="200" width="70" height="70" as="geometry" />
        </mxCell>
        <mxCell id="SWOzDiL3YIz-11qopB4E-337" style="edgeStyle=orthogonalEdgeStyle;rounded=0;orthogonalLoop=1;jettySize=auto;html=1;exitX=1;exitY=0.5;exitDx=0;exitDy=0;entryX=0;entryY=0.5;entryDx=0;entryDy=0;" edge="1" parent="WIyWlLk6GJQsqaUBKTNV-1" source="SWOzDiL3YIz-11qopB4E-319" target="SWOzDiL3YIz-11qopB4E-321">
          <mxGeometry relative="1" as="geometry" />
        </mxCell>
        <mxCell id="SWOzDiL3YIz-11qopB4E-344" style="edgeStyle=orthogonalEdgeStyle;rounded=0;orthogonalLoop=1;jettySize=auto;html=1;exitX=1;exitY=0.5;exitDx=0;exitDy=0;entryX=-0.033;entryY=0.848;entryDx=0;entryDy=0;entryPerimeter=0;" edge="1" parent="WIyWlLk6GJQsqaUBKTNV-1" source="SWOzDiL3YIz-11qopB4E-259" target="SWOzDiL3YIz-11qopB4E-260">
          <mxGeometry relative="1" as="geometry" />
        </mxCell>
        <mxCell id="SWOzDiL3YIz-11qopB4E-345" style="edgeStyle=orthogonalEdgeStyle;rounded=0;orthogonalLoop=1;jettySize=auto;html=1;exitX=1;exitY=0.5;exitDx=0;exitDy=0;entryX=0;entryY=0.413;entryDx=0;entryDy=0;entryPerimeter=0;" edge="1" parent="WIyWlLk6GJQsqaUBKTNV-1" source="SWOzDiL3YIz-11qopB4E-270" target="SWOzDiL3YIz-11qopB4E-260">
          <mxGeometry relative="1" as="geometry" />
        </mxCell>
        <mxCell id="SWOzDiL3YIz-11qopB4E-350" style="edgeStyle=orthogonalEdgeStyle;rounded=0;orthogonalLoop=1;jettySize=auto;html=1;exitX=1;exitY=0.5;exitDx=0;exitDy=0;" edge="1" parent="WIyWlLk6GJQsqaUBKTNV-1">
          <mxGeometry relative="1" as="geometry">
            <mxPoint x="270" y="74.93" as="sourcePoint" />
            <mxPoint x="300" y="75.07" as="targetPoint" />
          </mxGeometry>
        </mxCell>
        <mxCell id="SWOzDiL3YIz-11qopB4E-351" style="edgeStyle=orthogonalEdgeStyle;rounded=0;orthogonalLoop=1;jettySize=auto;html=1;exitX=1;exitY=0.5;exitDx=0;exitDy=0;" edge="1" parent="WIyWlLk6GJQsqaUBKTNV-1">
          <mxGeometry relative="1" as="geometry">
            <mxPoint x="270" y="84.94" as="sourcePoint" />
            <mxPoint x="300" y="85.07999999999998" as="targetPoint" />
          </mxGeometry>
        </mxCell>
        <mxCell id="SWOzDiL3YIz-11qopB4E-352" style="edgeStyle=orthogonalEdgeStyle;rounded=0;orthogonalLoop=1;jettySize=auto;html=1;exitX=1;exitY=0.5;exitDx=0;exitDy=0;" edge="1" parent="WIyWlLk6GJQsqaUBKTNV-1">
          <mxGeometry relative="1" as="geometry">
            <mxPoint x="370" y="74.93" as="sourcePoint" />
            <mxPoint x="400" y="75.07" as="targetPoint" />
          </mxGeometry>
        </mxCell>
        <mxCell id="SWOzDiL3YIz-11qopB4E-353" style="edgeStyle=orthogonalEdgeStyle;rounded=0;orthogonalLoop=1;jettySize=auto;html=1;exitX=1;exitY=0.5;exitDx=0;exitDy=0;" edge="1" parent="WIyWlLk6GJQsqaUBKTNV-1">
          <mxGeometry relative="1" as="geometry">
            <mxPoint x="370" y="84.93" as="sourcePoint" />
            <mxPoint x="400" y="85.07" as="targetPoint" />
          </mxGeometry>
        </mxCell>
        <mxCell id="SWOzDiL3YIz-11qopB4E-356" style="edgeStyle=orthogonalEdgeStyle;rounded=0;orthogonalLoop=1;jettySize=auto;html=1;exitX=1;exitY=0.5;exitDx=0;exitDy=0;" edge="1" parent="WIyWlLk6GJQsqaUBKTNV-1">
          <mxGeometry relative="1" as="geometry">
            <mxPoint x="469" y="74.67000000000002" as="sourcePoint" />
            <mxPoint x="640" y="75" as="targetPoint" />
          </mxGeometry>
        </mxCell>
        <mxCell id="SWOzDiL3YIz-11qopB4E-357" style="edgeStyle=orthogonalEdgeStyle;rounded=0;orthogonalLoop=1;jettySize=auto;html=1;" edge="1" parent="WIyWlLk6GJQsqaUBKTNV-1">
          <mxGeometry relative="1" as="geometry">
            <mxPoint x="470" y="85" as="sourcePoint" />
            <mxPoint x="650" y="85" as="targetPoint" />
          </mxGeometry>
        </mxCell>
        <mxCell id="SWOzDiL3YIz-11qopB4E-377" value="L" style="text;html=1;align=left;verticalAlign=middle;whiteSpace=wrap;rounded=0;fontStyle=1" vertex="1" parent="WIyWlLk6GJQsqaUBKTNV-1">
          <mxGeometry x="1520" y="60" width="20" height="30" as="geometry" />
        </mxCell>
        <mxCell id="SWOzDiL3YIz-11qopB4E-378" value="R" style="text;html=1;align=left;verticalAlign=middle;whiteSpace=wrap;rounded=0;fontStyle=1" vertex="1" parent="WIyWlLk6GJQsqaUBKTNV-1">
          <mxGeometry x="1530" y="70" width="20" height="30" as="geometry" />
        </mxCell>
        <mxCell id="SWOzDiL3YIz-11qopB4E-379" value="C" style="text;html=1;align=left;verticalAlign=middle;whiteSpace=wrap;rounded=0;fontStyle=1" vertex="1" parent="WIyWlLk6GJQsqaUBKTNV-1">
          <mxGeometry x="1540" y="80" width="20" height="30" as="geometry" />
        </mxCell>
        <mxCell id="SWOzDiL3YIz-11qopB4E-380" value="Lss" style="text;html=1;align=left;verticalAlign=middle;whiteSpace=wrap;rounded=0;fontStyle=1" vertex="1" parent="WIyWlLk6GJQsqaUBKTNV-1">
          <mxGeometry x="1550" y="90" width="30" height="30" as="geometry" />
        </mxCell>
        <mxCell id="SWOzDiL3YIz-11qopB4E-381" value="Rss" style="text;html=1;align=left;verticalAlign=middle;whiteSpace=wrap;rounded=0;fontStyle=1" vertex="1" parent="WIyWlLk6GJQsqaUBKTNV-1">
          <mxGeometry x="1560" y="100" width="30" height="30" as="geometry" />
        </mxCell>
      </root>
    </mxGraphModel>
  </diagram>
</mxfile>
